<svg width="108" height="138" viewBox="0 0 108 138" fill="none" xmlns="http://www.w3.org/2000/svg">
<rect x="2.5" y="2.5" width="103" height="133" rx="17.5" fill="white" stroke="#4D4DFF" stroke-width="5"/>
<path fill-rule="evenodd" clip-rule="evenodd" d="M57.1814 11.5863C55.1184 12.8813 53.6414 14.8613 52.9964 17.1963C51.8804 21.2403 52.1614 22.3813 58.7534 40.5243C61.0174 46.7573 62.8704 52.4324 62.8704 53.1353C62.8704 53.9643 61.9794 54.2433 60.3354 53.9293C56.7874 53.2513 46.5474 55.4173 40.3544 58.1553C34.3554 60.8093 31.8704 63.7933 31.8704 68.3443C31.8704 70.9093 31.4194 71.6163 29.6204 71.8713C27.4644 72.1783 27.3574 72.6503 27.0704 83.1913C26.9054 89.2413 27.0404 95.6643 27.3704 97.4653C27.7434 99.5033 31.0984 104.602 36.2534 110.965C46.5414 123.665 46.899 124.422 46.899 131.289C46.899 135.498 47.296 137.038 48.5 137.5C49.9891 138.071 50.9367 137.27 51.4306 135H80.666C80.9303 137.031 81.4293 137.191 82.3704 137.191C84.0054 137.191 84.7324 136.44 84.9814 133V128.774L84.7446 113.242L84.7 111.586L84.7272 111.267C85.0401 104.409 89.2439 98.1097 95.1092 94.6179L95.5 94C95.5 94 96.0444 90.0473 95.8704 87.5176C95.5868 83.3929 93 77.3273 93 77.3273L95 26C95 26 95.1769 24.8243 95 24C94.6833 22.5239 93.3814 20.8863 93.3814 20.8863C89.0234 15.7073 81.3554 16.2013 77.8994 21.8843L76.1164 24.8163L74.2894 19.7363C73.2854 16.9433 71.4744 13.7283 70.2654 12.5923C67.0594 9.58135 61.1074 9.12335 57.1814 11.5863ZM64.8804 77.3563C68.2044 79.3193 69.8704 82.5453 69.8704 87.0163C69.8704 90.9883 67.7264 94.1973 63.6714 96.2943C59.6544 98.3713 55.8214 97.5493 50.8334 93.5413C47.6744 91.0023 46.8704 89.6933 46.8704 87.0893C46.8704 85.2923 46.4464 82.7053 45.9274 81.3403C45.0704 79.0873 45.3224 78.7193 48.6774 77.3273C53.6344 75.2693 61.3714 75.2833 64.8804 77.3563Z" fill="#4D4DFF"/>
<path fill-rule="evenodd" clip-rule="evenodd" d="M18.0625 20C18.5101 20 18.9393 20.191 19.2558 20.5309C19.5722 20.8708 19.75 21.3318 19.75 21.8125V23.625H21.4375C21.8851 23.625 22.3143 23.816 22.6308 24.1559C22.9472 24.4958 23.125 24.9568 23.125 25.4375C23.125 25.9182 22.9472 26.3792 22.6308 26.7191C22.3143 27.059 21.8851 27.25 21.4375 27.25H19.75V29.0625C19.75 29.5432 19.5722 30.0042 19.2558 30.3441C18.9393 30.684 18.5101 30.875 18.0625 30.875C17.615 30.875 17.1857 30.684 16.8693 30.3441C16.5528 30.0042 16.375 29.5432 16.375 29.0625V27.25H14.6875C14.24 27.25 13.8107 27.059 13.4943 26.7191C13.1778 26.3792 13 25.9182 13 25.4375C13 24.9568 13.1778 24.4958 13.4943 24.1559C13.8107 23.816 14.24 23.625 14.6875 23.625H16.375V21.8125C16.375 21.3318 16.5528 20.8708 16.8693 20.5309C17.1857 20.191 17.615 20 18.0625 20ZM18.0625 38.125C18.5101 38.125 18.9393 38.316 19.2558 38.6559C19.5722 38.9958 19.75 39.4568 19.75 39.9375V41.75H21.4375C21.8851 41.75 22.3143 41.941 22.6308 42.2809C22.9472 42.6208 23.125 43.0818 23.125 43.5625C23.125 44.0432 22.9472 44.5042 22.6308 44.8441C22.3143 45.184 21.8851 45.375 21.4375 45.375H19.75V47.1875C19.75 47.6682 19.5722 48.1292 19.2558 48.4691C18.9393 48.809 18.5101 49 18.0625 49C17.615 49 17.1857 48.809 16.8693 48.4691C16.5528 48.1292 16.375 47.6682 16.375 47.1875V45.375H14.6875C14.24 45.375 13.8107 45.184 13.4943 44.8441C13.1778 44.5042 13 44.0432 13 43.5625C13 43.0818 13.1778 42.6208 13.4943 42.2809C13.8107 41.941 14.24 41.75 14.6875 41.75H16.375V39.9375C16.375 39.4568 16.5528 38.9958 16.8693 38.6559C17.1857 38.316 17.615 38.125 18.0625 38.125ZM29.875 20C30.2475 19.9999 30.6095 20.1321 30.9046 20.376C31.1998 20.6199 31.4115 20.9618 31.5069 21.3485L33.4964 29.425L39.1563 32.9304C39.4128 33.0895 39.6258 33.3183 39.7739 33.5938C39.922 33.8693 40 34.1819 40 34.5C40 34.8181 39.922 35.1307 39.7739 35.4062C39.6258 35.6817 39.4128 35.9105 39.1563 36.0696L33.4964 39.5768L31.5052 47.6515C31.4097 48.0378 31.198 48.3793 30.903 48.623C30.608 48.8667 30.2463 48.9988 29.8742 48.9988C29.5021 48.9988 29.1404 48.8667 28.8454 48.623C28.5505 48.3793 28.3387 48.0378 28.2432 47.6515L26.2537 39.575L20.5938 36.0696C20.3373 35.9105 20.1243 35.6817 19.9762 35.4062C19.8281 35.1307 19.7501 34.8181 19.7501 34.5C19.7501 34.1819 19.8281 33.8693 19.9762 33.5938C20.1243 33.3183 20.3373 33.0895 20.5938 32.9304L26.2537 29.4232L28.2449 21.3485C28.3402 20.9621 28.5517 20.6204 28.8465 20.3765C29.1413 20.1326 29.5029 20.0003 29.875 20Z" fill="#4D4DFF"/>
</svg>
